#N canvas 340 223 450 300 10;
#X obj 78 81 osc~;
#N canvas 447 260 450 300 mySubpatch 1;
#X obj 46 39 inlet~;
#X obj 47 83 delwrite~ myDel;
#X obj 47 126 delread~ myDel;
#X obj 48 165 outlet~;
#N canvas 842 260 450 300 subSubPatch 1;
#X obj 67 67 outlet~;
#X obj 66 32 phasor~ -440;
#X connect 1 0 0 0;
#X restore 183 83 pd subSubPatch;
#X connect 0 0 1 0;
#X connect 2 0 3 0;
#X restore 79 117 pd subPatch;
#X obj 80 175 dac~;
#X connect 0 0 1 0;
#X connect 1 0 2 0;
#X connect 1 0 2 1;
